<svg xmlns="http://www.w3.org/2000/svg" viewBox="0 0 64 64" role="img" aria-labelledby="title">
  <title id="title">Scout puppy profile</title>
  <rect width="64" height="64" rx="15" fill="#f8e9d1"/>
  <path d="M18 30c-1-10 5-18 15-18 8-1 15 4 17 12l7 5c4 3 2 7-2 7h-6c-3 7-9 11-17 10-8-1-13-7-14-16Z" fill="#e5b17b" stroke="#493b3b" stroke-width="2.5" stroke-linejoin="round"/>
  <path d="M25 17c-7-4-12 3-9 11-2 7 2 17 8 19 7 2 10-5 9-14-1-7-3-13-8-16Z" fill="#b77e50" stroke="#493b3b" stroke-width="2.5"/>
  <path d="M38 33c5-5 12-4 17-1-1 7-9 10-16 7Z" fill="#f5dbba"/>
  <circle cx="42" cy="25" r="2.5" fill="#342f35"/>
  <ellipse cx="57" cy="32" rx="3.5" ry="2.5" fill="#342f35"/>
  <path d="m51 41 9-1 1 12-10 1Z" fill="#e8b87c" stroke="#493b3b" stroke-width="2" stroke-linejoin="round"/>
  <path d="m52 43 4 3 4-4m-4 4v6" fill="none" stroke="#9b735a" stroke-width="1.4"/>
</svg>
